<svg xmlns="http://www.w3.org/2000/svg" viewBox="0 0 100.13 100.13"><defs><style>.cls-1{fill:#003670;}.cls-2{fill:#eeb14b;}</style></defs><title>资源 1</title><g id="图层_2" data-name="图层 2"><g id="图层_1-2" data-name="图层 1"><path class="cls-1" d="M51,101c-15.67,0-31.33-.07-47,.07C1.5,101.09.93,100.5.94,98q.15-47,0-94C.93,1.5,1.5.93,4,.94q47,.15,94,0c2.5,0,3.07.56,3.06,3.06q-.15,47,0,94c0,2.5-.56,3.09-3.07,3.07C82.33,100.93,66.67,101,51,101Z" transform="translate(-0.94 -0.94)"/><path class="cls-2" d="M64.21,52.11C60.7,60.2,57.71,67,54.8,73.81c-1,2.35-1.89,4.24-5.18,4.31s-4.43-1.58-5.44-4Q40.86,66,37.51,58c-.49-1.18-.63-3.09-2.2-3-2.13.16-1.46,2.36-1.55,3.63C33.34,64.29,33,69.95,33,75.59c0,3.06-1.21,4-4,4.28-11.4,1.2-11.89,1-11.58-10.37.37-13.79,1.3-27.56,1.79-41.35.12-3.38,1.58-4.82,4.72-5,.66,0,1.32-.18,2-.29C31,22,36.57,20.05,41.13,21.72c5.15,1.89,3.74,8.82,5.93,13.24,1.05,2.13.92,5.82,3.69,5.86s2.87-3.63,3.87-5.77a82.28,82.28,0,0,0,4.22-10.65c.87-2.82,2.34-4.16,5.29-4.14,5.32,0,10.64,0,16-.09,2.68,0,3.74,1.18,3.83,4q.83,25.17,2,50.33c.13,2.87-.7,4.11-3.7,4.58C68.38,81.21,67.14,80.27,66.26,66.7,66,62.3,66.71,57.74,64.21,52.11Z" transform="translate(-0.94 -0.94)"/></g></g></svg>